<?xml version="1.0" encoding="utf-8"?>
<!-- Generator: Adobe Illustrator 17.0.0, SVG Export Plug-In . SVG Version: 6.00 Build 0)  -->
<!DOCTYPE svg PUBLIC "-//W3C//DTD SVG 1.1//EN" "http://www.w3.org/Graphics/SVG/1.1/DTD/svg11.dtd">
<svg version="1.1" id="Layer_1" xmlns="http://www.w3.org/2000/svg" xmlns:xlink="http://www.w3.org/1999/xlink" x="0px" y="0px"
	 width="316.719px" height="156.754px" viewBox="0 0 316.719 156.754" enable-background="new 0 0 316.719 156.754"
	 xml:space="preserve">
<path fill="#FFFFFF" d="M301.553,23.663c-10.354-13.306-19.895-23.56-36.648-23.56c-13.275,0-199.045,0-212.32,0
	c-16.755,0-26.296,10.254-36.649,23.56C0.385,43.646,0.385,78.479,0.385,78.479s0,34.833,15.55,54.816
	c10.354,13.307,19.895,23.561,36.649,23.561c13.275,0,199.045,0,212.32,0c16.754,0,26.295-10.254,36.648-23.561
	c15.551-19.983,15.551-54.816,15.551-54.816S317.104,43.646,301.553,23.663z M34.411,91.479c-7.18,0-13-5.82-13-13s5.82-13,13-13
	s13,5.82,13,13S41.591,91.479,34.411,91.479z"/>
</svg>
